<svg width="24" height="25" viewBox="0 0 24 25" fill="none" xmlns="http://www.w3.org/2000/svg">
<style>
  .x-path {
    fill: url(#paint0_linear_111_35);
    transition: fill 0.2s ease;
  }
  svg:hover .x-path {
    fill: url(#paint0_linear_161_36);
  }
</style>
<path class="x-path" fill-rule="evenodd" clip-rule="evenodd" d="M8.44292 4.11899L10.7789 5.75899C11.1205 5.99906 11.5286 6.12622 11.9461 6.12263C12.3636 6.11905 12.7695 5.9849 13.1069 5.73899L15.4129 4.05599L15.9049 6.86799C15.9772 7.27916 16.1763 7.65741 16.4743 7.94972C16.7724 8.24203 17.1544 8.43374 17.5669 8.49799L20.3869 8.93999L18.7469 11.277C18.5069 11.6186 18.3797 12.0267 18.3833 12.4442C18.3869 12.8617 18.521 13.2676 18.7669 13.605L20.4499 15.911L17.6379 16.403C17.2267 16.475 16.8484 16.6739 16.5559 16.9717C16.2634 17.2696 16.0714 17.6515 16.0069 18.064L15.5659 20.884L13.2289 19.244C12.8872 19.0041 12.479 18.8771 12.0616 18.8809C11.6441 18.8846 11.2382 19.0189 10.9009 19.265L8.59493 20.948L8.10292 18.136C8.03092 17.7248 7.83204 17.3464 7.53417 17.0539C7.2363 16.7614 6.85437 16.5695 6.44193 16.505L3.62192 16.063L5.26193 13.727C5.50185 13.3853 5.62883 12.9771 5.62507 12.5596C5.6213 12.1421 5.48698 11.7363 5.24093 11.399L3.55793 9.09299L6.36993 8.59999C6.78099 8.52805 7.15925 8.32931 7.45172 8.03164C7.7442 7.73397 7.93623 7.35226 8.00093 6.93999L8.44292 4.11899ZM7.45493 3.96399C7.48121 3.79623 7.54979 3.63793 7.65419 3.504C7.75859 3.37008 7.89538 3.26494 8.05165 3.19851C8.20793 3.13208 8.37855 3.10654 8.54743 3.12429C8.71631 3.14205 8.87788 3.20251 9.01693 3.29999L11.3539 4.93999C11.5247 5.06003 11.7288 5.12361 11.9375 5.12181C12.1463 5.12002 12.3492 5.05295 12.5179 4.92999L14.8239 3.24799C14.9611 3.14796 15.1216 3.08452 15.2901 3.06365C15.4586 3.04277 15.6297 3.06516 15.7871 3.12869C15.9446 3.19222 16.0833 3.2948 16.1902 3.42677C16.297 3.55874 16.3685 3.71575 16.3979 3.88299L16.8899 6.69499C16.9259 6.90076 17.0253 7.0901 17.1744 7.23645C17.3234 7.3828 17.5145 7.47881 17.7209 7.51099L20.5409 7.95199C20.7089 7.9782 20.8673 8.04677 21.0014 8.15123C21.1355 8.2557 21.2407 8.39261 21.3071 8.54903C21.3736 8.70546 21.3991 8.87624 21.3812 9.04526C21.3633 9.21427 21.3026 9.37594 21.2049 9.51499L19.5649 11.851C19.4449 12.0218 19.3813 12.2259 19.3831 12.4346C19.3849 12.6433 19.452 12.8463 19.5749 13.015L21.2579 15.322C21.358 15.4592 21.4214 15.6196 21.4423 15.7882C21.4631 15.9567 21.4408 16.1277 21.3772 16.2852C21.3137 16.4427 21.2111 16.5814 21.0791 16.6883C20.9472 16.7951 20.7902 16.8666 20.6229 16.896L17.8109 17.388C17.6053 17.4239 17.4161 17.5232 17.2697 17.672C17.1234 17.8209 17.0273 18.0118 16.9949 18.218L16.5539 21.039C16.5277 21.2069 16.4591 21.3654 16.3547 21.4995C16.2502 21.6335 16.1133 21.7387 15.9569 21.8052C15.8005 21.8717 15.6297 21.8971 15.4607 21.8793C15.2916 21.8614 15.13 21.8007 14.9909 21.703L12.6549 20.063C12.4841 19.943 12.2801 19.8794 12.0713 19.8812C11.8626 19.883 11.6596 19.95 11.4909 20.073L9.18393 21.756C9.04664 21.856 8.88614 21.9195 8.71755 21.9403C8.54896 21.9611 8.37785 21.9386 8.22035 21.875C8.06286 21.8113 7.92417 21.7086 7.81737 21.5765C7.71056 21.4444 7.63917 21.2873 7.60993 21.12L7.11793 18.308C7.08205 18.1024 6.98272 17.9131 6.83388 17.7668C6.68503 17.6205 6.49413 17.5244 6.28793 17.492L3.46693 17.052C3.299 17.0258 3.14052 16.9572 3.00646 16.8528C2.8724 16.7483 2.76717 16.6114 2.70072 16.455C2.63427 16.2985 2.60878 16.1277 2.62666 15.9587C2.64454 15.7897 2.70521 15.628 2.80293 15.489L4.44292 13.152C4.56296 12.9812 4.62654 12.7771 4.62474 12.5684C4.62295 12.3596 4.55588 12.1567 4.43293 11.988L2.74993 9.68199C2.64988 9.54471 2.58646 9.3842 2.56564 9.21562C2.54483 9.04703 2.5673 8.87592 2.63093 8.71842C2.69457 8.56092 2.79728 8.42223 2.92938 8.31543C3.06147 8.20863 3.21859 8.13724 3.38592 8.10799L6.19793 7.61499C6.40337 7.57892 6.59239 7.47952 6.73853 7.33069C6.88466 7.18186 6.98061 6.99106 7.01293 6.78499L7.45493 3.96399ZM15.9999 12.5C15.9999 13.5609 15.5785 14.5783 14.8284 15.3284C14.0782 16.0786 13.0608 16.5 11.9999 16.5C10.9391 16.5 9.92164 16.0786 9.1715 15.3284C8.42135 14.5783 7.99993 13.5609 7.99993 12.5C7.99993 11.4391 8.42135 10.4217 9.1715 9.67157C9.92164 8.92142 10.9391 8.49999 11.9999 8.49999C13.0608 8.49999 14.0782 8.92142 14.8284 9.67157C15.5785 10.4217 15.9999 11.4391 15.9999 12.5ZM16.9999 12.5C16.9999 13.8261 16.4731 15.0978 15.5355 16.0355C14.5978 16.9732 13.326 17.5 11.9999 17.5C10.6738 17.5 9.40207 16.9732 8.46439 16.0355C7.52671 15.0978 6.99993 13.8261 6.99993 12.5C6.99993 11.1739 7.52671 9.90214 8.46439 8.96446C9.40207 8.02678 10.6738 7.49999 11.9999 7.49999C13.326 7.49999 14.5978 8.02678 15.5355 8.96446C16.4731 9.90214 16.9999 11.1739 16.9999 12.5Z" fill="url(#paint0_linear_247_8)"/>
<defs>
<linearGradient id="paint0_linear_247_8" x1="12.004" y1="3.05606" x2="12.004" y2="21.9478" gradientUnits="userSpaceOnUse">
<stop stop-color="#AD46FF"/>
<stop offset="1" stop-color="#00B8DB"/>
</linearGradient>
<linearGradient id="paint0_linear_161_36" x1="6.99739" y1="0.5" x2="6.99739" y2="15.5095" gradientUnits="userSpaceOnUse">
<stop stop-color="#AD46FFBF"/>
<stop offset="1" stop-color="#51A2FFBF"/>
</linearGradient>
</defs>
</svg>
