<svg width="14" height="16" viewBox="0 0 14 16" fill="none" xmlns="http://www.w3.org/2000/svg">
<path d="M13.7773 14.5398L8.88672 6.85391L13.7125 1.54531C13.8216 1.42228 13.8779 1.2612 13.8691 1.09697C13.8602 0.932746 13.787 0.778621 13.6653 0.668012C13.5436 0.557404 13.3832 0.499225 13.2189 0.50609C13.0546 0.512956 12.8996 0.584312 12.7875 0.704687L8.19063 5.76094L5.02735 0.789844C4.97094 0.701058 4.89304 0.627946 4.80085 0.57728C4.70867 0.526613 4.60519 0.500033 4.5 0.5H0.750004C0.637943 0.499946 0.527928 0.530021 0.431479 0.587078C0.33503 0.644135 0.255696 0.726073 0.201784 0.824314C0.147871 0.922555 0.121363 1.03348 0.125036 1.14548C0.128709 1.25749 0.162428 1.36644 0.222661 1.46094L5.11329 9.14609L0.287505 14.4586C0.23115 14.5191 0.187372 14.5902 0.158706 14.6678C0.13004 14.7454 0.117057 14.8279 0.120509 14.9105C0.123962 14.9932 0.143781 15.0743 0.178819 15.1492C0.213856 15.2241 0.263415 15.2914 0.324622 15.347C0.385829 15.4026 0.457468 15.4455 0.535387 15.4733C0.613305 15.501 0.695953 15.513 0.77854 15.5085C0.861127 15.5041 0.942011 15.4833 1.0165 15.4474C1.091 15.4114 1.15762 15.3611 1.2125 15.2992L5.80938 10.243L8.97266 15.2141C9.02953 15.3021 9.10763 15.3745 9.19979 15.4244C9.29194 15.4744 9.39518 15.5004 9.5 15.5H13.25C13.3619 15.5 13.4718 15.4699 13.5682 15.4128C13.6645 15.3558 13.7437 15.274 13.7976 15.1759C13.8515 15.0778 13.8781 14.967 13.8745 14.8551C13.8709 14.7432 13.8374 14.6343 13.7773 14.5398ZM9.84297 14.25L1.88829 1.75H4.15391L12.1117 14.25H9.84297Z" fill="url(#paint0_linear_111_35)"/>
<defs>
<linearGradient id="paint0_linear_111_35" x1="6.99739" y1="0.5" x2="6.99739" y2="15.5095" gradientUnits="userSpaceOnUse">
<stop stop-color="#AD46FF"/>
<stop offset="1" stop-color="#51A2FF"/>
</linearGradient>
</defs>
</svg>
